<svg xmlns="http://www.w3.org/2000/svg" viewBox="0 0 512 512" fill="none">
  <rect width="512" height="512" rx="100" fill="#1E3A5F"/>
  <circle cx="256" cy="256" r="200" fill="#F59E0B"/>
  <path d="M256 140c-60 0-110 50-110 110s50 110 110 110 110-50 110-110-50-110-110-110zm0 180c-38 0-70-32-70-70s32-70 70-70 70 32 70 70-32 70-70 70z" fill="#fff"/>
  <circle cx="256" cy="250" r="30" fill="#1E3A5F"/>
  <rect x="126" y="200" width="60" height="100" rx="10" fill="#fff"/>
  <rect x="326" y="200" width="60" height="100" rx="10" fill="#fff"/>
  <text x="156" y="270" font-size="40" font-weight="bold" fill="#1E3A5F">T</text>
  <text x="336" y="270" font-size="40" font-weight="bold" fill="#1E3A5F">M</text>
</svg>
